<svg width="1920" height="1080" viewBox="0 0 1920 1080" fill="none" xmlns="http://www.w3.org/2000/svg">
<path d="M1234.51 195.248C1229.62 187.225 1214.22 180.14 1204.83 180.049L940.208 177.491C930.818 177.4 930.428 184.473 934.998 192.675L1394.94 1010.76C1399.51 1018.97 1410.55 1019.6 1419.53 1016.92L1675.48 938.618C1684.48 935.94 1687.83 925.325 1682.93 917.303L1234.51 195.248Z" fill="#1DA1F2"/>
<path d="M591.782 1003.16L822.183 522.788L817.67 989.646C817.266 1031.43 861.516 1029.46 870.905 1029.55L1310.83 1033.8C1320.21 1033.89 1324.18 1018.79 1319.61 1010.59L872.902 199.38C868.332 191.178 860.808 191.105 856.082 199.218L740.336 398.259C735.608 406.371 725.108 416.595 716.851 421.077C601.109 483.935 445.03 567.862 375.935 597.431C365.582 601.872 366.031 614.896 373.985 622.856C389.142 637.984 421.326 672.567 450.956 714.129C468.189 738.31 483.208 765.236 495.471 791.929C499.393 800.469 498.502 814.059 493.776 822.193L394.281 1001.64C389.601 1009.76 393.297 1024.93 402.685 1025.02L566.868 1026.61C576.251 1026.7 587.444 1011.51 591.782 1003.16ZM464.099 630.114C459.924 626.338 460.456 621.366 465.475 618.788C514.158 593.861 744.488 475.622 808.583 437.225C813.422 434.322 815.154 435.905 812.552 440.905L591.197 866.281C588.593 871.281 585.675 870.838 584.487 865.317C576.667 829.102 544.724 702.937 464.099 630.114Z" fill="#1DA1F2"/>
</svg>












